<?xml version="1.0" standalone="no"?><!DOCTYPE svg PUBLIC "-//W3C//DTD SVG 1.1//EN" "http://www.w3.org/Graphics/SVG/1.1/DTD/svg11.dtd"><svg t="1536852520171" class="icon" style="" viewBox="0 0 1024 1024" version="1.1" xmlns="http://www.w3.org/2000/svg" p-id="21839" xmlns:xlink="http://www.w3.org/1999/xlink" width="128" height="128"><defs><style type="text/css"></style></defs><path d="M512 20.48C241.664 20.48 20.48 241.664 20.48 512s221.184 491.52 491.52 491.52 491.52-221.184 491.52-491.52-221.184-491.52-491.52-491.52z m237.568 536.576h-192.512v192.512c0 24.576-20.48 45.056-45.056 45.056s-45.056-20.48-45.056-45.056v-192.512H274.432c-24.576 0-45.056-20.48-45.056-45.056s20.48-45.056 45.056-45.056h192.512V274.432c0-24.576 20.48-45.056 45.056-45.056s45.056 20.48 45.056 45.056v192.512h192.512c24.576 0 45.056 20.48 45.056 45.056s-20.48 45.056-45.056 45.056z" fill="#1296db" p-id="21840"></path></svg>