<?xml version="1.0" standalone="no"?><!DOCTYPE svg PUBLIC "-//W3C//DTD SVG 1.1//EN" "http://www.w3.org/Graphics/SVG/1.1/DTD/svg11.dtd"><svg t="1536889002893" class="icon" style="" viewBox="0 0 1024 1024" version="1.1" xmlns="http://www.w3.org/2000/svg" p-id="3919" xmlns:xlink="http://www.w3.org/1999/xlink" width="64" height="64"><defs><style type="text/css"></style></defs><path d="M851.209481 1024" p-id="3920" fill="#e6e6e6"></path><path d="M940.809481 172.790519l-742.4 0C185.609481 115.2 179.2 76.8 179.2 70.409481c0-32.009481-19.190519-51.2-38.4-64C121.609481 0 108.790519 0 102.4 0l0 0L32.009481 0C12.8 0 0 12.8 0 32.009481 0 51.2 12.8 64 32.009481 64L102.4 64l6.390519 0c0 0 6.409481 0 6.409481 12.8 6.409481 38.4 102.4 646.390519 108.790519 684.809481 0 6.390519 6.409481 19.209481 12.8 38.4 19.209481 19.190519 38.4 38.4 83.190519 38.4l595.209481 0c19.209481 0 32.009481-12.8 32.009481-31.990519s-12.8-32.009481-32.009481-32.009481L320 774.409481c-6.409481 0-19.190519 0-25.6-6.409481l-6.409481-6.390519 0-6.409481c0 0-6.390519-25.6-12.8-64l588.8 0c51.2 0 83.209481-25.6 96.009481-70.409481l0 0L1024 256l0-6.409481C1024 211.209481 985.6 172.790519 940.809481 172.790519L940.809481 172.790519 940.809481 172.790519zM902.409481 607.990519c-6.409481 12.8-12.8 25.6-32.009481 25.6L268.8 633.590519C256 518.390519 223.990519 358.4 204.8 236.809481l736.009481 0c6.409481 0 12.8 6.390519 19.190519 12.8L902.409481 607.990519 902.409481 607.990519 902.409481 607.990519zM902.409481 607.990519" p-id="3921" fill="#e6e6e6"></path><path d="M855.22963 891.259259c-36.655407 0-66.37037 29.714963-66.37037 66.37037 0 36.655407 29.714963 66.37037 66.37037 66.37037 36.655407 0 66.37037-29.714963 66.37037-66.37037C921.6 920.974222 891.885037 891.259259 855.22963 891.259259z" p-id="3922" fill="#e6e6e6"></path><path d="M324.039111 891.259259c-36.655407 0-66.37037 29.714963-66.37037 66.37037 0 36.655407 29.714963 66.37037 66.37037 66.37037 36.655407 0 66.37037-29.714963 66.37037-66.37037C390.409481 920.974222 360.694519 891.259259 324.039111 891.259259z" p-id="3923" fill="#e6e6e6"></path></svg>