<?xml version="1.0" standalone="no"?><!DOCTYPE svg PUBLIC "-//W3C//DTD SVG 1.1//EN" "http://www.w3.org/Graphics/SVG/1.1/DTD/svg11.dtd"><svg t="1536995202222" class="icon" style="" viewBox="0 0 1024 1024" version="1.1" xmlns="http://www.w3.org/2000/svg" p-id="3465" xmlns:xlink="http://www.w3.org/1999/xlink" width="128" height="128"><defs><style type="text/css"></style></defs><path d="M854.9 368.5c-18.7-44.3-45.5-84-79.7-118.2-34.1-34.1-73.9-61-118.2-79.7-45.9-19.4-94.5-29.2-144.7-29.2s-98.9 9.8-144.7 29.2c-44.3 18.7-84 45.5-118.2 79.7-34.1 34.1-61 73.9-79.7 118.2-19.4 45.8-29.2 94.5-29.2 144.7 0 50.2 9.8 98.9 29.2 144.7 18.7 44.3 45.5 84 79.7 118.2 34.1 34.1 73.9 61 118.2 79.7 45.8 19.4 94.5 29.2 144.7 29.2 50.2 0 98.9-9.8 144.7-29.2 44.3-18.7 84-45.5 118.2-79.7 34.1-34.1 61-73.9 79.7-118.2 19.4-45.8 29.2-94.5 29.2-144.7 0-50.2-9.8-98.9-29.2-144.7zM512.3 865.1c-194 0-351.8-157.8-351.8-351.8s157.8-351.8 351.8-351.8 351.8 157.8 351.8 351.8c0 193.9-157.8 351.8-351.8 351.8z" p-id="3466" fill="#bfbfbf"></path><path d="M654.4 369.6c-3.9-3.9-10.2-3.9-14.1 0l-129 128.9-128.9-128.9c-3.9-3.9-10.2-3.9-14.1 0-3.9 3.9-3.9 10.2 0 14.1l128.9 128.9-128.5 128.5c-3.9 3.9-3.9 10.2 0 14.1 2 2 4.5 2.9 7.1 2.9s5.1-1 7.1-2.9l128.5-128.5 128.5 128.5c2 2 4.5 2.9 7.1 2.9 2.6 0 5.1-1 7.1-2.9 3.9-3.9 3.9-10.2 0-14.1L525.5 512.7l128.9-128.9c3.9-4 3.9-10.3 0-14.2z" p-id="3467" fill="#bfbfbf"></path></svg>